<?xml version="1.0" encoding="UTF-8"?>
<svg width="250px" height="129px" viewBox="0 0 250 129" version="1.1" xmlns="http://www.w3.org/2000/svg" xmlns:xlink="http://www.w3.org/1999/xlink">
    <!-- Generator: Sketch 63.1 (92452) - https://sketch.com -->
    <title>开发中</title>
    <desc>Created with Sketch.</desc>
    <defs>
        <linearGradient x1="50%" y1="0%" x2="50%" y2="100%" id="linearGradient-1">
            <stop stop-color="#C1DBFE" offset="0%"></stop>
            <stop stop-color="#FFFFFF" offset="100%"></stop>
        </linearGradient>
        <linearGradient x1="50%" y1="0%" x2="50%" y2="98.4190245%" id="linearGradient-2">
            <stop stop-color="#A5C3F4" offset="0%"></stop>
            <stop stop-color="#789EEA" offset="100%"></stop>
        </linearGradient>
    </defs>
    <g id="2.0" stroke="none" stroke-width="1" fill="none" fill-rule="evenodd">
        <g id="空页面" transform="translate(-425.000000, -67.000000)">
            <g id="开发中" transform="translate(423.000000, 45.000000)">
                <rect id="矩形备份-4" x="0" y="0" width="253" height="150"></rect>
                <path d="M251.283495,151 C221.862798,114.493778 174.799938,93 124.264363,93 C75.2903413,93 31.4394504,114.93473 2,149.515879 C2,149.515879 251.283495,151 251.283495,151 Z" id="椭圆形" fill="url(#linearGradient-1)"></path>
                <g id="3.通用组件/彩色版/盆栽03备份-9" transform="translate(51.000000, 83.000000)">
                    <g id="分组" transform="translate(0.968750, 0.179688)">
                        <g transform="translate(5.875000, 0.000000)" fill="#BAE637" id="Fill-1">
                            <path d="M4.6757776,18.3494157 L0.00187743506,18.3494157 L0.00187743506,2.3360632 C0.00187743506,1.06147112 1.04268506,0.0281925221 2.32660958,0.0281925221 L2.35100893,0.0281925221 C3.63493344,0.0281925221 4.6757776,1.06147112 4.6757776,2.3360632 L4.6757776,18.3494157 Z"></path>
                        </g>
                        <path d="M12.875,22.2690616 L8.1875,22.2690616 L8.1875,13.9072249 C8.1875,12.6662922 9.20534668,11.6603281 10.4609375,11.6603281 L10.6015991,11.6603281 C11.8571533,11.6603281 12.875,12.6662922 12.875,13.9072249 L12.875,22.2690616 Z" id="Fill-3" fill="#389E0D"></path>
                        <path d="M6.5625,18.3410466 L1.84375,18.3410466 L1.84375,9.2496614 C1.84375,8.00170765 2.86426439,6.990011 4.12309505,6.990011 L4.28315495,6.990011 C5.54198561,6.990011 6.5625,8.00170765 6.5625,9.2496614 L6.5625,18.3410466 Z" id="Fill-5" fill="#7CB305"></path>
                        <g transform="translate(0.000000, 17.784320)" fill="#3B68B8" id="Fill-7">
                            <path d="M13.1538246,13.8381958 L0.878524946,13.8381958 C0.393322939,13.8381958 0,13.4489514 0,12.9687806 L0,0.893400207 C0,0.413229429 0.393322939,0.0239849922 0.878524946,0.0239849922 L13.1538246,0.0239849922 C13.6390266,0.0239849922 14.0323495,0.413229429 14.0323495,0.893400207 L14.0323495,12.9687806 C14.0323495,13.4489514 13.6390266,13.8381958 13.1538246,13.8381958"></path>
                        </g>
                    </g>
                </g>
                <g id="3.通用组件/彩色版/盆栽03备份-10" transform="translate(179.000000, 85.000000)">
                    <g id="分组" transform="translate(0.787879, 0.000000)">
                        <g transform="translate(5.091667, 0.000000)" fill="#BAE637" id="Fill-1">
                            <path d="M4.05234058,15.4823195 L0.00162711039,15.4823195 L0.00162711039,1.97105333 C0.00162711039,0.895616257 0.90366039,0.0237874405 2.01639497,0.0237874405 L2.03754107,0.0237874405 C3.15027565,0.0237874405 4.05234058,0.895616257 4.05234058,1.97105333 L4.05234058,15.4823195 Z"></path>
                        </g>
                        <path d="M11.1583333,18.7895207 L7.09583333,18.7895207 L7.09583333,11.734221 C7.09583333,10.687184 7.97796712,9.83840182 9.06614583,9.83840182 L9.18805257,9.83840182 C10.2761995,9.83840182 11.1583333,10.687184 11.1583333,11.734221 L11.1583333,18.7895207 Z" id="Fill-3" fill="#389E0D"></path>
                        <path d="M5.6875,15.475258 L1.59791667,15.475258 L1.59791667,7.80440181 C1.59791667,6.75144083 2.48236247,5.89782178 3.57334905,5.89782178 L3.71206762,5.89782178 C4.8030542,5.89782178 5.6875,6.75144083 5.6875,7.80440181 L5.6875,15.475258 Z" id="Fill-5" fill="#7CB305"></path>
                        <g transform="translate(0.000000, 15.005520)" fill="#3B68B8" id="Fill-7">
                            <path d="M11.3999813,11.6759777 L0.761388286,11.6759777 C0.340879881,11.6759777 0,11.3475527 0,10.9424086 L0,0.753806425 C0,0.348662331 0.340879881,0.0202373372 0.761388286,0.0202373372 L11.3999813,0.0202373372 C11.8204897,0.0202373372 12.1613696,0.348662331 12.1613696,0.753806425 L12.1613696,10.9424086 C12.1613696,11.3475527 11.8204897,11.6759777 11.3999813,11.6759777"></path>
                        </g>
                    </g>
                </g>
                <g id="3.通用组件/彩色版/盆栽03备份-11" transform="translate(82.000000, 113.000000)">
                    <g id="分组" transform="translate(0.500000, 0.000000)">
                        <g transform="translate(3.133333, 0.000000)" fill="#BAE637" id="Fill-1">
                            <path d="M2.49374805,9.9529197 L0.0010012987,9.9529197 L0.0010012987,1.26710571 C0.0010012987,0.575753308 0.556098701,0.015291926 1.24085844,0.015291926 L1.25387143,0.015291926 C1.93863117,0.015291926 2.49374805,0.575753308 2.49374805,1.26710571 L2.49374805,9.9529197 Z"></path>
                        </g>
                        <path d="M6.86666667,12.0789776 L4.36666667,12.0789776 L4.36666667,7.5434278 C4.36666667,6.87033258 4.90951823,6.32468688 5.57916667,6.32468688 L5.6541862,6.32468688 C6.3238151,6.32468688 6.86666667,6.87033258 6.86666667,7.5434278 L6.86666667,12.0789776 Z" id="Fill-3" fill="#389E0D"></path>
                        <path d="M3.5,9.94838016 L0.983333333,9.94838016 L0.983333333,5.01711545 C0.983333333,4.34021196 1.52760767,3.79145686 2.19898403,3.79145686 L2.28434931,3.79145686 C2.95572566,3.79145686 3.5,4.34021196 3.5,5.01711545 L3.5,9.94838016 Z" id="Fill-5" fill="#7CB305"></path>
                        <g transform="translate(0.000000, 9.646406)" fill="#3B68B8" id="Fill-7">
                            <path d="M7.0153731,7.50598566 L0.468546638,7.50598566 C0.209772234,7.50598566 0,7.29485531 0,7.03440554 L0,0.484589844 C0,0.22414007 0.209772234,0.0130097168 0.468546638,0.0130097168 L7.0153731,0.0130097168 C7.27414751,0.0130097168 7.48391974,0.22414007 7.48391974,0.484589844 L7.48391974,7.03440554 C7.48391974,7.29485531 7.27414751,7.50598566 7.0153731,7.50598566"></path>
                        </g>
                    </g>
                </g>
                <path d="M131.81832,22 L134.246808,32.8621709 C138.562188,33.7787403 142.617085,35.3999738 146.285366,37.5997391 L155.801801,31.0331893 L165.917146,41.148534 L159.689159,50.8666824 C161.698784,54.1409162 163.244466,57.7305807 164.234676,61.5441477 L176,63.7478993 L176,77.8183204 L164.495716,80.3893583 C163.487789,84.772016 161.750688,88.8761502 159.418978,92.5671965 L166.122382,103.026745 L156.007038,113.14209 L145.578994,105.946114 L145.895005,105.631311 C142.330154,107.713737 138.40968,109.253652 134.246808,110.137829 L131.81832,121 L117.747899,121 L115.616186,109.62097 C112.211233,108.695682 108.989127,107.326386 106.015888,105.579102 L96.0041786,112.486579 L85.8888339,102.371234 L92.3791055,92.244129 C90.1488941,88.6372064 88.4828995,84.644562 87.5042844,80.3893583 L76,77.8183204 L76,63.7478993 L87.7653244,61.5441477 C88.6870119,57.9944788 90.0899541,54.6387965 91.9003396,51.5509124 L85.2333228,41.148534 L95.3486675,31.0331893 L105.262852,37.8747901 C108.442475,35.909697 111.921698,34.3829982 115.616186,33.3790304 L117.747899,22 L131.81832,22 Z M126,54 C116.058875,54 108,62.0588745 108,72 C108,81.9411255 116.058875,90 126,90 C135.941125,90 144,81.9411255 144,72 C144,62.0588745 135.941125,54 126,54 Z" id="形状结合" fill="url(#linearGradient-2)"></path>
            </g>
        </g>
    </g>
</svg>