<?xml version="1.0" encoding="utf-8"?>
<!-- Generator: Adobe Illustrator 24.2.1, SVG Export Plug-In . SVG Version: 6.00 Build 0)  -->
<svg version="1.1" id="图层_1" xmlns="http://www.w3.org/2000/svg" xmlns:xlink="http://www.w3.org/1999/xlink" x="0px" y="0px"
	 viewBox="0 0 200 200" style="enable-background:new 0 0 200 200;" xml:space="preserve">
<path d="M100,100c27.4,0,49.5-22.2,49.5-49.5S127.4,0.9,100,0.9S50.5,23.1,50.5,50.5S72.6,100,100,100z M100,85.8
	c-19.5,0-35.4-15.8-35.4-35.4S80.5,15.1,100,15.1s35.4,15.8,35.4,35.4S119.5,85.8,100,85.8z"/>
<path d="M85.8,57.5h28.3c0,7.8-6.3,14.2-14.2,14.2S85.8,65.4,85.8,57.5z"/>
<path d="M54,114.2h92c25.4,0,46,19,46,42.5s-20.6,42.5-46,42.5H54c-25.4,0-46-19-46-42.5S28.6,114.2,54,114.2z M53.3,128.3
	c-17.2,0-31.1,12.7-31.1,28.3s13.9,28.3,31.1,28.3h93.4c17.2,0,31.1-12.7,31.1-28.3s-13.9-28.3-31.1-28.3H53.3z"/>
</svg>
